<svg width="182" height="65" viewBox="0 0 182 65" fill="none" xmlns="http://www.w3.org/2000/svg">
<path d="M50 41.16L66.26 0H73.76L90.08 41.16H83.9L79.88 30.96H59.84L55.88 41.16H50ZM61.7 26.1H77.96L72.98 13.2C72.86 12.84 72.68 12.34 72.44 11.7C72.2 11.06 71.94 10.36 71.66 9.6C71.38 8.8 71.1 8 70.82 7.2C70.54 6.36 70.28 5.6 70.04 4.92H69.68C69.4 5.72 69.08 6.64 68.72 7.68C68.36 8.72 68 9.74 67.64 10.74C67.28 11.7 66.98 12.52 66.74 13.2L61.7 26.1Z" fill="#C65910"/>
<path d="M122.1 41.64C120.607 41.64 119.167 41.4933 117.78 41.2C116.42 40.9067 115.207 40.44 114.14 39.8C113.073 39.1333 112.22 38.28 111.58 37.24C110.967 36.2 110.66 34.92 110.66 33.4C110.66 33.2667 110.66 33.1333 110.66 33C110.687 32.8667 110.7 32.7333 110.7 32.6H114.54C114.54 32.68 114.527 32.8133 114.5 33C114.5 33.16 114.5 33.3067 114.5 33.44C114.5 34.5067 114.82 35.4133 115.46 36.16C116.1 36.9067 116.98 37.4667 118.1 37.84C119.247 38.1867 120.54 38.36 121.98 38.36C122.62 38.36 123.287 38.32 123.98 38.24C124.7 38.16 125.38 38.0267 126.02 37.84C126.687 37.6267 127.273 37.36 127.78 37.04C128.313 36.6933 128.727 36.28 129.02 35.8C129.34 35.2933 129.5 34.68 129.5 33.96C129.5 33.0533 129.233 32.3067 128.7 31.72C128.193 31.1067 127.513 30.6133 126.66 30.24C125.807 29.84 124.833 29.4933 123.74 29.2C122.673 28.88 121.567 28.5733 120.42 28.28C119.273 27.9867 118.153 27.6533 117.06 27.28C115.993 26.88 115.033 26.4 114.18 25.84C113.327 25.2533 112.633 24.5333 112.1 23.68C111.593 22.8267 111.34 21.7867 111.34 20.56C111.34 19.4133 111.567 18.3867 112.02 17.48C112.5 16.5733 113.193 15.8133 114.1 15.2C115.033 14.56 116.18 14.08 117.54 13.76C118.9 13.4133 120.46 13.24 122.22 13.24C123.66 13.24 124.993 13.4 126.22 13.72C127.473 14.0133 128.567 14.48 129.5 15.12C130.46 15.7333 131.207 16.52 131.74 17.48C132.273 18.44 132.54 19.6 132.54 20.96V21.44H128.78V20.84C128.78 19.9333 128.5 19.16 127.94 18.52C127.38 17.88 126.607 17.3867 125.62 17.04C124.66 16.6933 123.567 16.52 122.34 16.52C120.74 16.52 119.407 16.68 118.34 17C117.273 17.2933 116.473 17.7333 115.94 18.32C115.433 18.88 115.18 19.52 115.18 20.24C115.18 21.0667 115.433 21.76 115.94 22.32C116.473 22.88 117.167 23.3467 118.02 23.72C118.873 24.0667 119.847 24.3867 120.94 24.68C122.033 24.9733 123.14 25.28 124.26 25.6C125.407 25.8933 126.513 26.24 127.58 26.64C128.673 27.0133 129.647 27.4933 130.5 28.08C131.38 28.64 132.073 29.36 132.58 30.24C133.087 31.0933 133.34 32.1467 133.34 33.4C133.34 35.3467 132.86 36.9333 131.9 38.16C130.94 39.36 129.62 40.24 127.94 40.8C126.26 41.36 124.313 41.64 122.1 41.64Z" fill="#C65910"/>
<path d="M99.82 41.52C98.3 41.52 96.95 41.29 95.77 40.83C94.61 40.35 93.7 39.67 93.04 38.79C92.38 37.91 92.05 36.86 92.05 35.64C92.05 34.26 92.4 33.16 93.1 32.34C93.8 31.5 94.67 30.92 95.71 30.6V30.48C94.81 30.04 94.05 29.47 93.43 28.77C92.83 28.05 92.53 27.08 92.53 25.86C92.53 24.64 92.84 23.61 93.46 22.77C94.1 21.93 94.99 21.3 96.13 20.88C97.27 20.44 98.6 20.22 100.12 20.22C101.6 20.22 102.9 20.45 104.02 20.91C105.16 21.37 106.05 22.03 106.69 22.89C107.33 23.73 107.65 24.72 107.65 25.86V26.37H105.01V26.04C104.99 25.22 104.76 24.55 104.32 24.03C103.9 23.49 103.32 23.1 102.58 22.86C101.86 22.6 101.02 22.47 100.06 22.47C99.42 22.47 98.81 22.54 98.23 22.68C97.65 22.8 97.13 23 96.67 23.28C96.23 23.56 95.88 23.93 95.62 24.39C95.36 24.83 95.23 25.37 95.23 26.01C95.23 26.83 95.43 27.51 95.83 28.05C96.23 28.57 96.75 28.96 97.39 29.22C98.05 29.48 98.76 29.61 99.52 29.61H101.38V31.8H99.58C98.78 31.8 98.01 31.9 97.27 32.1C96.53 32.3 95.93 32.67 95.47 33.21C95.03 33.73 94.81 34.48 94.81 35.46C94.81 36.36 95.02 37.09 95.44 37.65C95.88 38.21 96.49 38.62 97.27 38.88C98.07 39.14 98.99 39.27 100.03 39.27C101.15 39.27 102.08 39.13 102.82 38.85C103.56 38.57 104.11 38.14 104.47 37.56C104.83 36.98 105.01 36.27 105.01 35.43V29.61H110.2V31.83H107.65V35.34C107.65 36.66 107.35 37.78 106.75 38.7C106.17 39.62 105.3 40.32 104.14 40.8C102.98 41.28 101.54 41.52 99.82 41.52Z" fill="#C65910"/>
<path d="M67.58 33.16H72.58V41.16H67.58V33.16Z" fill="#C65910"/>
<path d="M71.58 37.66C71.58 37.9361 71.3561 38.16 71.08 38.16C70.8039 38.16 70.58 37.9361 70.58 37.66C70.58 37.3839 70.8039 37.16 71.08 37.16C71.3561 37.16 71.58 37.3839 71.58 37.66Z" fill="#C65910"/>
<path d="M67.58 18.16H69.58V21.16H67.58V18.16Z" fill="#C65910"/>
<path d="M67.58 22.16H69.58V25.16H67.58V22.16Z" fill="#C65910"/>
<path d="M70.58 18.16H72.58V21.16H70.58V18.16Z" fill="#C65910"/>
<path d="M70.58 22.16H72.58V25.16H70.58V22.16Z" fill="#C65910"/>
<path d="M132.151 24.8743C132.151 25.5844 131.576 26.16 130.866 26.16C130.156 26.16 129.58 25.5844 129.58 24.8743C129.58 24.1642 130.156 23.5886 130.866 23.5886C131.576 23.5886 132.151 24.1642 132.151 24.8743Z" fill="#C65910"/>
<path d="M129.58 24.7314L130.866 22.16L132.151 24.7314H130.866H129.58Z" fill="#C65910"/>
<path d="M0.0400009 64.16L3.84 50.42H7.4L11.2 64.16H8.3L7.56 61.3H3.56L2.84 64.16H0.0400009ZM4.08 59.04H7.06L6.14 55.2C6.11333 55.0933 6.07333 54.9533 6.02 54.78C5.98 54.5933 5.93333 54.3933 5.88 54.18C5.84 53.9667 5.8 53.7533 5.76 53.54C5.72 53.3267 5.68 53.1333 5.64 52.96H5.5C5.46 53.1733 5.40667 53.4267 5.34 53.72C5.28667 54 5.22667 54.2733 5.16 54.54C5.10667 54.8067 5.05333 55.0267 5 55.2L4.08 59.04Z" fill="#C65910"/>
<path d="M12.2305 64.16V49.68H14.6905V64.16H12.2305Z" fill="#C65910"/>
<path d="M16.6836 64.16V49.68H19.1436V64.16H16.6836Z" fill="#C65910"/>
<path d="M28.3859 64.4C27.3993 64.4 26.5593 64.2333 25.8659 63.9C25.1859 63.5667 24.6659 63.1 24.3059 62.5C23.9593 61.9 23.7859 61.2067 23.7859 60.42C23.7859 59.5667 23.9793 58.86 24.3659 58.3C24.7526 57.7267 25.2593 57.3267 25.8859 57.1V57.02C25.3659 56.7533 24.9259 56.3733 24.5659 55.88C24.2193 55.3867 24.0459 54.7733 24.0459 54.04C24.0459 53.2667 24.2193 52.5933 24.5659 52.02C24.9259 51.4467 25.4459 51 26.1259 50.68C26.8059 50.3467 27.6193 50.18 28.5659 50.18C29.4726 50.18 30.2526 50.3333 30.9059 50.64C31.5593 50.9333 32.0659 51.36 32.4259 51.92C32.7993 52.48 32.9859 53.1533 32.9859 53.94V54.36H30.6459V54.1C30.6459 53.6733 30.5593 53.3267 30.3859 53.06C30.2259 52.78 29.9993 52.5733 29.7059 52.44C29.4259 52.2933 29.0793 52.22 28.6659 52.22C28.3459 52.22 28.0526 52.2667 27.7859 52.36C27.5326 52.44 27.3193 52.5667 27.1459 52.74C26.9726 52.9133 26.8393 53.1267 26.7459 53.38C26.6526 53.62 26.6059 53.9 26.6059 54.22C26.6059 54.6333 26.6793 54.9933 26.8259 55.3C26.9726 55.5933 27.1793 55.82 27.4459 55.98C27.7126 56.14 28.0193 56.22 28.3659 56.22H29.2059V58.14H28.3059C27.9593 58.14 27.6326 58.2067 27.3259 58.34C27.0326 58.46 26.7926 58.6733 26.6059 58.98C26.4193 59.2733 26.3259 59.6867 26.3259 60.22C26.3259 60.6867 26.4126 61.08 26.5859 61.4C26.7593 61.72 27.0059 61.96 27.3259 62.12C27.6593 62.28 28.0593 62.36 28.5259 62.36C29.0059 62.36 29.3993 62.28 29.7059 62.12C30.0259 61.9467 30.2593 61.7 30.4059 61.38C30.5659 61.06 30.6459 60.66 30.6459 60.18V56.22H34.6859V58.14H32.9859V60.02C32.9859 60.94 32.8259 61.7267 32.5059 62.38C32.1859 63.0333 31.6859 63.5333 31.0059 63.88C30.3393 64.2267 29.4659 64.4 28.3859 64.4Z" fill="#C65910"/>
<path d="M43.2883 64.4C42.6483 64.4 42.0416 64.3333 41.4683 64.2C40.9083 64.0667 40.4149 63.84 39.9883 63.52C39.5616 63.2 39.2283 62.7667 38.9883 62.22C38.7483 61.6733 38.6283 60.9867 38.6283 60.16C38.6283 60.1067 38.6283 60.0467 38.6283 59.98C38.6283 59.9 38.6349 59.8333 38.6483 59.78H41.3083C41.3083 59.8333 41.3083 59.8933 41.3083 59.96C41.3083 60.0267 41.3083 60.0933 41.3083 60.16C41.3083 60.6267 41.3749 61.0067 41.5083 61.3C41.6549 61.58 41.8749 61.7867 42.1683 61.92C42.4616 62.04 42.8149 62.1 43.2283 62.1C43.4816 62.1 43.7083 62.08 43.9083 62.04C44.1083 62 44.2816 61.9333 44.4283 61.84C44.5883 61.7467 44.7216 61.6333 44.8283 61.5C44.9349 61.3667 45.0083 61.2133 45.0483 61.04C45.1016 60.8533 45.1283 60.6467 45.1283 60.42C45.1283 60.0733 45.0416 59.78 44.8683 59.54C44.6949 59.3 44.4549 59.1 44.1483 58.94C43.8549 58.7667 43.5216 58.6133 43.1483 58.48C42.7749 58.3333 42.3883 58.1867 41.9883 58.04C41.5883 57.8933 41.2016 57.72 40.8283 57.52C40.4683 57.32 40.1349 57.0733 39.8283 56.78C39.5349 56.4867 39.295 56.1267 39.1083 55.7C38.935 55.2733 38.8483 54.76 38.8483 54.16C38.8483 53.4533 38.9616 52.8533 39.1883 52.36C39.4283 51.8533 39.7549 51.44 40.1683 51.12C40.5816 50.8 41.055 50.5667 41.5883 50.42C42.135 50.26 42.7083 50.18 43.3083 50.18C43.9216 50.18 44.4883 50.2533 45.0083 50.4C45.5416 50.5333 46.0016 50.7533 46.3883 51.06C46.7749 51.3667 47.075 51.7667 47.2883 52.26C47.515 52.7533 47.6283 53.3467 47.6283 54.04V54.42H45.0083V54.16C45.0083 53.8 44.9483 53.5 44.8283 53.26C44.7083 53.0067 44.5283 52.8133 44.2883 52.68C44.0483 52.5333 43.7283 52.46 43.3283 52.46C42.9816 52.46 42.6816 52.5133 42.4283 52.62C42.175 52.7267 41.9749 52.8867 41.8283 53.1C41.6949 53.3 41.6283 53.56 41.6283 53.88C41.6283 54.2267 41.7149 54.52 41.8883 54.76C42.0749 55 42.315 55.2 42.6083 55.36C42.915 55.52 43.2549 55.6733 43.6283 55.82C44.0016 55.9533 44.3816 56.0933 44.7683 56.24C45.1683 56.3867 45.555 56.56 45.9283 56.76C46.3016 56.9467 46.635 57.1867 46.9283 57.48C47.235 57.7733 47.4749 58.1333 47.6483 58.56C47.8216 58.9867 47.9083 59.4933 47.9083 60.08C47.9083 61.0933 47.7149 61.92 47.3283 62.56C46.9416 63.1867 46.4016 63.6533 45.7083 63.96C45.0149 64.2533 44.2083 64.4 43.2883 64.4Z" fill="#C65910"/>
<path d="M49.4766 64.16V53.62H51.5566L51.7366 54.96H51.8366C52.0232 54.6133 52.2366 54.3267 52.4766 54.1C52.7166 53.86 52.9899 53.68 53.2966 53.56C53.6166 53.44 53.9632 53.38 54.3366 53.38C54.9232 53.38 55.4032 53.5067 55.7766 53.76C56.1499 54.0133 56.4166 54.4133 56.5766 54.96H56.6966C56.8699 54.6133 57.0766 54.3267 57.3166 54.1C57.5566 53.86 57.8366 53.68 58.1566 53.56C58.4766 53.44 58.8232 53.38 59.1966 53.38C59.7566 53.38 60.2166 53.4867 60.5766 53.7C60.9499 53.9133 61.2299 54.24 61.4166 54.68C61.6032 55.12 61.6966 55.6933 61.6966 56.4V64.16H59.2366V57.02C59.2366 56.7933 59.2166 56.5933 59.1766 56.42C59.1366 56.2467 59.0766 56.1 58.9966 55.98C58.9166 55.86 58.8099 55.7733 58.6766 55.72C58.5432 55.6533 58.3832 55.62 58.1966 55.62C57.9166 55.62 57.6699 55.7133 57.4566 55.9C57.2566 56.0867 57.0966 56.36 56.9766 56.72C56.8699 57.08 56.8166 57.5133 56.8166 58.02V64.16H54.3566V57.02C54.3566 56.7933 54.3366 56.5933 54.2966 56.42C54.2699 56.2467 54.2099 56.1 54.1166 55.98C54.0366 55.86 53.9299 55.7733 53.7966 55.72C53.6632 55.6533 53.5099 55.62 53.3366 55.62C53.0432 55.62 52.7899 55.7133 52.5766 55.9C52.3766 56.0867 52.2166 56.36 52.0966 56.72C51.9899 57.08 51.9366 57.5133 51.9366 58.02V64.16H49.4766Z" fill="#C65910"/>
<path d="M65.8972 64.4C65.5239 64.4 65.1705 64.3467 64.8372 64.24C64.5172 64.1333 64.2305 63.9667 63.9772 63.74C63.7239 63.5 63.5239 63.2 63.3772 62.84C63.2439 62.4667 63.1772 62.02 63.1772 61.5C63.1772 60.8867 63.2839 60.36 63.4972 59.92C63.7105 59.4667 64.0305 59.0867 64.4572 58.78C64.8972 58.4733 65.4439 58.24 66.0972 58.08C66.7639 57.92 67.5372 57.84 68.4172 57.84V56.72C68.4172 56.44 68.3772 56.2 68.2972 56C68.2172 55.8 68.0839 55.64 67.8972 55.52C67.7239 55.4 67.4972 55.34 67.2172 55.34C66.8839 55.34 66.6239 55.4067 66.4372 55.54C66.2505 55.66 66.1172 55.8133 66.0372 56C65.9705 56.1867 65.9372 56.4 65.9372 56.64V56.84H63.5972C63.5839 56.7733 63.5772 56.7133 63.5772 56.66C63.5772 56.6067 63.5772 56.54 63.5772 56.46C63.5772 55.78 63.7305 55.2133 64.0372 54.76C64.3439 54.2933 64.7772 53.9467 65.3372 53.72C65.8972 53.4933 66.5505 53.38 67.2972 53.38C68.0172 53.38 68.6439 53.4867 69.1772 53.7C69.7105 53.9133 70.1239 54.26 70.4172 54.74C70.7239 55.22 70.8772 55.88 70.8772 56.72V61.72C70.8772 61.9333 70.9239 62.1 71.0172 62.22C71.1239 62.3267 71.2705 62.38 71.4572 62.38H71.9772V64.06C71.7772 64.14 71.5439 64.2133 71.2772 64.28C71.0105 64.3467 70.7239 64.38 70.4172 64.38C70.0705 64.38 69.7705 64.32 69.5172 64.2C69.2772 64.0933 69.0839 63.94 68.9372 63.74C68.7905 63.5267 68.6905 63.2867 68.6372 63.02H68.5372C68.3772 63.2733 68.1705 63.5067 67.9172 63.72C67.6772 63.9333 67.3905 64.1 67.0572 64.22C66.7372 64.34 66.3505 64.4 65.8972 64.4ZM66.8172 62.42C67.0572 62.42 67.2705 62.3667 67.4572 62.26C67.6572 62.1533 67.8239 62.0133 67.9572 61.84C68.1039 61.6533 68.2172 61.4267 68.2972 61.16C68.3772 60.8933 68.4172 60.6 68.4172 60.28V59.36C67.7639 59.36 67.2372 59.4333 66.8372 59.58C66.4505 59.7267 66.1639 59.9333 65.9772 60.2C65.8039 60.4533 65.7172 60.76 65.7172 61.12C65.7172 61.4 65.7572 61.64 65.8372 61.84C65.9172 62.0267 66.0372 62.1733 66.1972 62.28C66.3705 62.3733 66.5772 62.42 66.8172 62.42Z" fill="#C65910"/>
<path d="M73.0117 64.16V49.68H75.4717V64.16H73.0117Z" fill="#C65910"/>
<path d="M77.4648 64.16V49.68H79.9248V64.16H77.4648Z" fill="#C65910"/>
<path d="M89.8272 64.4C88.6272 64.4 87.6405 64.1467 86.8672 63.64C86.0939 63.1333 85.5205 62.3533 85.1472 61.3C84.7872 60.2467 84.6072 58.9067 84.6072 57.28C84.6072 54.8533 85.0539 53.0667 85.9472 51.92C86.8405 50.76 88.2005 50.18 90.0272 50.18C91.0139 50.18 91.8605 50.3733 92.5672 50.76C93.2739 51.1333 93.8205 51.7267 94.2072 52.54C94.5939 53.3533 94.7872 54.4067 94.7872 55.7H92.1072C92.1072 55.02 92.0272 54.44 91.8672 53.96C91.7205 53.48 91.4872 53.12 91.1672 52.88C90.8472 52.6267 90.4339 52.5 89.9272 52.5C89.3539 52.5 88.8739 52.6467 88.4872 52.94C88.1139 53.2333 87.8405 53.68 87.6672 54.28C87.4939 54.88 87.4072 55.6467 87.4072 56.58V58.04C87.4072 58.96 87.4939 59.72 87.6672 60.32C87.8405 60.92 88.1072 61.3667 88.4672 61.66C88.8405 61.94 89.3139 62.08 89.8872 62.08C90.4072 62.08 90.8339 61.9667 91.1672 61.74C91.5005 61.5 91.7472 61.1467 91.9072 60.68C92.0805 60.2 92.1672 59.6133 92.1672 58.92H94.7872C94.7872 60.2 94.5872 61.2467 94.1872 62.06C93.7872 62.86 93.2139 63.4533 92.4672 63.84C91.7339 64.2133 90.8539 64.4 89.8272 64.4Z" fill="#C65910"/>
<path d="M100.229 64.4C99.3092 64.4 98.5426 64.2133 97.9292 63.84C97.3159 63.4533 96.8492 62.8533 96.5292 62.04C96.2226 61.2267 96.0692 60.18 96.0692 58.9C96.0692 57.6067 96.2226 56.56 96.5292 55.76C96.8492 54.9467 97.3159 54.3467 97.9292 53.96C98.5426 53.5733 99.3092 53.38 100.229 53.38C101.149 53.38 101.916 53.5733 102.529 53.96C103.143 54.3467 103.603 54.9467 103.909 55.76C104.229 56.56 104.389 57.6067 104.389 58.9C104.389 60.18 104.229 61.2267 103.909 62.04C103.603 62.8533 103.143 63.4533 102.529 63.84C101.916 64.2133 101.149 64.4 100.229 64.4ZM100.229 62.4C100.616 62.4 100.929 62.3067 101.169 62.12C101.409 61.92 101.583 61.6067 101.689 61.18C101.796 60.74 101.849 60.1733 101.849 59.48V58.32C101.849 57.6133 101.796 57.0467 101.689 56.62C101.583 56.1933 101.409 55.88 101.169 55.68C100.929 55.48 100.616 55.38 100.229 55.38C99.8426 55.38 99.5292 55.48 99.2892 55.68C99.0492 55.88 98.8759 56.1933 98.7692 56.62C98.6626 57.0467 98.6092 57.6133 98.6092 58.32V59.48C98.6092 60.1733 98.6626 60.74 98.7692 61.18C98.8759 61.6067 99.0492 61.92 99.2892 62.12C99.5292 62.3067 99.8426 62.4 100.229 62.4Z" fill="#C65910"/>
<path d="M106 64.16V53.62H108.08L108.26 54.96H108.36C108.547 54.6133 108.767 54.3267 109.02 54.1C109.273 53.86 109.56 53.68 109.88 53.56C110.213 53.44 110.573 53.38 110.96 53.38C111.533 53.38 112.007 53.4867 112.38 53.7C112.767 53.9133 113.053 54.2467 113.24 54.7C113.44 55.1533 113.54 55.7333 113.54 56.44V64.16H111.06V57.04C111.06 56.8 111.04 56.5933 111 56.42C110.96 56.2467 110.893 56.1 110.8 55.98C110.707 55.86 110.587 55.7733 110.44 55.72C110.307 55.6533 110.14 55.62 109.94 55.62C109.647 55.62 109.387 55.7133 109.16 55.9C108.933 56.0867 108.76 56.36 108.64 56.72C108.52 57.08 108.46 57.5133 108.46 58.02V64.16H106Z" fill="#C65910"/>
<path d="M118.653 64.4C117.986 64.4 117.42 64.32 116.953 64.16C116.5 64.0133 116.126 63.8 115.833 63.52C115.54 63.24 115.32 62.9133 115.173 62.54C115.04 62.1533 114.973 61.7333 114.973 61.28C114.973 61.2133 114.973 61.14 114.973 61.06C114.986 60.9667 115 60.8867 115.013 60.82H117.273C117.26 60.8867 117.253 60.9533 117.253 61.02C117.253 61.0733 117.253 61.1333 117.253 61.2C117.266 61.48 117.326 61.72 117.433 61.92C117.54 62.12 117.7 62.28 117.913 62.4C118.126 62.5067 118.373 62.56 118.653 62.56C118.92 62.56 119.153 62.52 119.353 62.44C119.553 62.3467 119.706 62.2133 119.813 62.04C119.933 61.8533 119.993 61.62 119.993 61.34C119.993 61.0067 119.893 60.7467 119.693 60.56C119.506 60.3733 119.26 60.22 118.953 60.1C118.646 59.9667 118.313 59.8333 117.953 59.7C117.62 59.5933 117.286 59.4667 116.953 59.32C116.633 59.16 116.333 58.9667 116.053 58.74C115.786 58.5 115.566 58.2 115.393 57.84C115.233 57.48 115.153 57.0267 115.153 56.48C115.153 55.9467 115.24 55.4867 115.413 55.1C115.6 54.7133 115.86 54.3933 116.193 54.14C116.526 53.8867 116.913 53.7 117.353 53.58C117.793 53.4467 118.266 53.38 118.773 53.38C119.28 53.38 119.74 53.44 120.153 53.56C120.566 53.68 120.926 53.86 121.233 54.1C121.54 54.3267 121.773 54.6133 121.933 54.96C122.106 55.2933 122.193 55.6733 122.193 56.1C122.193 56.1933 122.186 56.3 122.173 56.42C122.173 56.5267 122.166 56.62 122.153 56.7H119.913V56.34C119.913 56.0867 119.86 55.88 119.753 55.72C119.66 55.56 119.52 55.44 119.333 55.36C119.16 55.2667 118.946 55.22 118.693 55.22C118.506 55.22 118.34 55.2467 118.193 55.3C118.046 55.3533 117.92 55.4267 117.813 55.52C117.706 55.6133 117.626 55.72 117.573 55.84C117.52 55.96 117.493 56.1067 117.493 56.28C117.493 56.5467 117.573 56.7667 117.733 56.94C117.906 57.1133 118.133 57.2533 118.413 57.36C118.693 57.4667 119 57.58 119.333 57.7C119.68 57.82 120.033 57.9533 120.393 58.1C120.766 58.2467 121.106 58.4333 121.413 58.66C121.72 58.8867 121.966 59.18 122.153 59.54C122.353 59.9 122.453 60.3733 122.453 60.96C122.453 61.5733 122.353 62.1 122.153 62.54C121.966 62.9667 121.7 63.32 121.353 63.6C121.02 63.88 120.62 64.08 120.153 64.2C119.7 64.3333 119.2 64.4 118.653 64.4Z" fill="#C65910"/>
<path d="M126.428 64.4C125.895 64.4 125.468 64.3 125.148 64.1C124.828 63.8867 124.595 63.6 124.448 63.24C124.315 62.8667 124.248 62.44 124.248 61.96V55.62H123.288V53.62H124.328L124.768 50.56H126.728V53.62H128.128V55.62H126.728V61.5C126.728 61.7933 126.768 62.0133 126.848 62.16C126.942 62.3067 127.115 62.38 127.368 62.38H128.128V64.08C127.955 64.1467 127.768 64.2 127.568 64.24C127.368 64.2933 127.168 64.3333 126.968 64.36C126.782 64.3867 126.602 64.4 126.428 64.4Z" fill="#C65910"/>
<path d="M129.535 64.16V53.62H131.595L131.755 55.12H131.855C131.988 54.76 132.142 54.4533 132.315 54.2C132.502 53.9467 132.715 53.7467 132.955 53.6C133.195 53.4533 133.468 53.38 133.775 53.38C133.922 53.38 134.055 53.3933 134.175 53.42C134.308 53.4467 134.422 53.48 134.515 53.52V56H133.695C133.415 56 133.162 56.06 132.935 56.18C132.722 56.2867 132.542 56.4533 132.395 56.68C132.262 56.8933 132.162 57.1733 132.095 57.52C132.028 57.8533 131.995 58.2533 131.995 58.72V64.16H129.535Z" fill="#C65910"/>
<path d="M138.011 64.4C137.171 64.4 136.531 64.16 136.091 63.68C135.665 63.1867 135.451 62.4133 135.451 61.36V53.62H137.911V60.76C137.911 60.9867 137.931 61.1867 137.971 61.36C138.025 61.5333 138.091 61.68 138.171 61.8C138.265 61.92 138.378 62.0133 138.511 62.08C138.658 62.1333 138.831 62.16 139.031 62.16C139.338 62.16 139.605 62.0667 139.831 61.88C140.058 61.6933 140.231 61.42 140.351 61.06C140.471 60.6867 140.531 60.2533 140.531 59.76V53.62H142.991V64.16H140.891L140.731 62.82H140.631C140.445 63.1667 140.225 63.46 139.971 63.7C139.718 63.9267 139.425 64.1 139.091 64.22C138.771 64.34 138.411 64.4 138.011 64.4Z" fill="#C65910"/>
<path d="M148.604 64.4C147.684 64.4 146.931 64.2067 146.344 63.82C145.758 63.42 145.318 62.8133 145.024 62C144.744 61.1867 144.604 60.1533 144.604 58.9C144.604 57.6067 144.751 56.5533 145.044 55.74C145.351 54.9267 145.798 54.3333 146.384 53.96C146.984 53.5733 147.731 53.38 148.624 53.38C149.264 53.38 149.818 53.4667 150.284 53.64C150.764 53.8 151.158 54.0533 151.464 54.4C151.784 54.7467 152.018 55.1933 152.164 55.74C152.324 56.2733 152.404 56.9267 152.404 57.7H149.964C149.964 57.14 149.918 56.6933 149.824 56.36C149.744 56.0133 149.611 55.7667 149.424 55.62C149.238 55.46 148.971 55.38 148.624 55.38C148.304 55.38 148.031 55.4733 147.804 55.66C147.578 55.8467 147.411 56.1533 147.304 56.58C147.198 57.0067 147.144 57.5867 147.144 58.32V59.5C147.144 60.06 147.184 60.56 147.264 61C147.358 61.44 147.511 61.7867 147.724 62.04C147.951 62.28 148.258 62.4 148.644 62.4C148.978 62.4 149.244 62.3267 149.444 62.18C149.644 62.0333 149.791 61.7933 149.884 61.46C149.978 61.1133 150.024 60.66 150.024 60.1H152.404C152.404 60.78 152.324 61.3867 152.164 61.92C152.018 62.4533 151.784 62.9067 151.464 63.28C151.158 63.64 150.764 63.92 150.284 64.12C149.804 64.3067 149.244 64.4 148.604 64.4Z" fill="#C65910"/>
<path d="M156.487 64.4C155.954 64.4 155.527 64.3 155.207 64.1C154.887 63.8867 154.654 63.6 154.507 63.24C154.374 62.8667 154.307 62.44 154.307 61.96V55.62H153.347V53.62H154.387L154.827 50.56H156.787V53.62H158.187V55.62H156.787V61.5C156.787 61.7933 156.827 62.0133 156.907 62.16C157 62.3067 157.174 62.38 157.427 62.38H158.187V64.08C158.014 64.1467 157.827 64.2 157.627 64.24C157.427 64.2933 157.227 64.3333 157.027 64.36C156.84 64.3867 156.66 64.4 156.487 64.4Z" fill="#C65910"/>
<path d="M159.594 51.98V49.68H162.054V51.98H159.594ZM159.594 64.16V53.62H162.054V64.16H159.594Z" fill="#C65910"/>
<path d="M167.827 64.4C166.907 64.4 166.14 64.2133 165.527 63.84C164.914 63.4533 164.447 62.8533 164.127 62.04C163.82 61.2267 163.667 60.18 163.667 58.9C163.667 57.6067 163.82 56.56 164.127 55.76C164.447 54.9467 164.914 54.3467 165.527 53.96C166.14 53.5733 166.907 53.38 167.827 53.38C168.747 53.38 169.514 53.5733 170.127 53.96C170.74 54.3467 171.2 54.9467 171.507 55.76C171.827 56.56 171.987 57.6067 171.987 58.9C171.987 60.18 171.827 61.2267 171.507 62.04C171.2 62.8533 170.74 63.4533 170.127 63.84C169.514 64.2133 168.747 64.4 167.827 64.4ZM167.827 62.4C168.214 62.4 168.527 62.3067 168.767 62.12C169.007 61.92 169.18 61.6067 169.287 61.18C169.394 60.74 169.447 60.1733 169.447 59.48V58.32C169.447 57.6133 169.394 57.0467 169.287 56.62C169.18 56.1933 169.007 55.88 168.767 55.68C168.527 55.48 168.214 55.38 167.827 55.38C167.44 55.38 167.127 55.48 166.887 55.68C166.647 55.88 166.474 56.1933 166.367 56.62C166.26 57.0467 166.207 57.6133 166.207 58.32V59.48C166.207 60.1733 166.26 60.74 166.367 61.18C166.474 61.6067 166.647 61.92 166.887 62.12C167.127 62.3067 167.44 62.4 167.827 62.4Z" fill="#C65910"/>
<path d="M173.598 64.16V53.62H175.678L175.858 54.96H175.958C176.144 54.6133 176.364 54.3267 176.618 54.1C176.871 53.86 177.158 53.68 177.478 53.56C177.811 53.44 178.171 53.38 178.558 53.38C179.131 53.38 179.604 53.4867 179.978 53.7C180.364 53.9133 180.651 54.2467 180.838 54.7C181.038 55.1533 181.138 55.7333 181.138 56.44V64.16H178.658V57.04C178.658 56.8 178.638 56.5933 178.598 56.42C178.558 56.2467 178.491 56.1 178.398 55.98C178.304 55.86 178.184 55.7733 178.038 55.72C177.904 55.6533 177.738 55.62 177.538 55.62C177.244 55.62 176.984 55.7133 176.758 55.9C176.531 56.0867 176.358 56.36 176.238 56.72C176.118 57.08 176.058 57.5133 176.058 58.02V64.16H173.598Z" fill="#C65910"/>
</svg>
